<mxfile host="app.diagrams.net" modified="2022-10-14T12:25:41.033Z" agent="5.0 (Windows)" etag="70E2igN2CHTSIPK465AM" version="20.4.1" type="github">
  <diagram id="yBaHxYRyqihLKzCcpQLK" name="Page-1">
    <mxGraphModel dx="1038" dy="556" grid="1" gridSize="10" guides="1" tooltips="1" connect="1" arrows="1" fold="1" page="1" pageScale="1" pageWidth="827" pageHeight="1169" math="0" shadow="0">
      <root>
        <mxCell id="0" />
        <mxCell id="1" parent="0" />
      </root>
    </mxGraphModel>
  </diagram>
</mxfile>
